<mxfile host="Electron" modified="2024-01-19T08:49:47.526Z" agent="Mozilla/5.0 (Windows NT 10.0; Win64; x64) AppleWebKit/537.36 (KHTML, like Gecko) draw.io/22.1.2 Chrome/114.0.5735.289 Electron/25.9.4 Safari/537.36" etag="UtEPHnFao5udtKDraGo6" version="22.1.2" type="device" pages="2">
  <diagram id="prtHgNgQTEPvFCAcTncT" name="总体设计">
    <mxGraphModel dx="947" dy="522" grid="1" gridSize="10" guides="1" tooltips="1" connect="1" arrows="1" fold="1" page="1" pageScale="1" pageWidth="827" pageHeight="1169" math="0" shadow="0">
      <root>
        <mxCell id="0" />
        <mxCell id="1" parent="0" />
        <mxCell id="2R7N5CE5uSLcKGkKTlYi-5" value="" style="edgeStyle=orthogonalEdgeStyle;rounded=0;orthogonalLoop=1;jettySize=auto;html=1;strokeColor=#028090;fontColor=#E4FDE1;fillColor=#F45B69;" parent="1" source="2R7N5CE5uSLcKGkKTlYi-1" edge="1">
          <mxGeometry relative="1" as="geometry">
            <mxPoint x="354" y="190" as="targetPoint" />
          </mxGeometry>
        </mxCell>
        <mxCell id="2R7N5CE5uSLcKGkKTlYi-7" style="edgeStyle=orthogonalEdgeStyle;rounded=0;orthogonalLoop=1;jettySize=auto;html=1;strokeColor=#028090;fontColor=#E4FDE1;fillColor=#F45B69;exitX=0.5;exitY=1;exitDx=0;exitDy=0;" parent="1" source="2R7N5CE5uSLcKGkKTlYi-1" edge="1">
          <mxGeometry relative="1" as="geometry">
            <mxPoint x="170.02857142857135" y="190" as="targetPoint" />
          </mxGeometry>
        </mxCell>
        <mxCell id="2R7N5CE5uSLcKGkKTlYi-9" style="edgeStyle=orthogonalEdgeStyle;rounded=0;orthogonalLoop=1;jettySize=auto;html=1;exitX=0.5;exitY=1;exitDx=0;exitDy=0;entryX=0.5;entryY=0;entryDx=0;entryDy=0;strokeColor=#028090;fontColor=#E4FDE1;fillColor=#F45B69;" parent="1" source="2R7N5CE5uSLcKGkKTlYi-1" edge="1">
          <mxGeometry relative="1" as="geometry">
            <mxPoint x="540" y="190" as="targetPoint" />
          </mxGeometry>
        </mxCell>
        <mxCell id="2R7N5CE5uSLcKGkKTlYi-1" value="MVC设计模式" style="rounded=1;whiteSpace=wrap;html=1;strokeColor=#028090;fontColor=#E4FDE1;fillColor=#F45B69;" parent="1" vertex="1">
          <mxGeometry x="294" y="70" width="120" height="60" as="geometry" />
        </mxCell>
        <mxCell id="2R7N5CE5uSLcKGkKTlYi-14" value="Model" style="swimlane;fontStyle=0;childLayout=stackLayout;horizontal=1;startSize=30;horizontalStack=0;resizeParent=1;resizeParentMax=0;resizeLast=0;collapsible=1;marginBottom=0;whiteSpace=wrap;html=1;strokeColor=#028090;fontColor=#E4FDE1;fillColor=#F45B69;" parent="1" vertex="1">
          <mxGeometry x="100" y="190" width="140" height="60" as="geometry" />
        </mxCell>
        <mxCell id="2R7N5CE5uSLcKGkKTlYi-17" value="功能一：实时显示" style="text;align=left;verticalAlign=middle;spacingLeft=4;spacingRight=4;overflow=hidden;points=[[0,0.5],[1,0.5]];portConstraint=eastwest;rotatable=0;whiteSpace=wrap;html=1;fillColor=#dae8fc;strokeColor=#6c8ebf;" parent="2R7N5CE5uSLcKGkKTlYi-14" vertex="1">
          <mxGeometry y="30" width="140" height="30" as="geometry" />
        </mxCell>
        <mxCell id="2R7N5CE5uSLcKGkKTlYi-21" value="View" style="swimlane;fontStyle=0;childLayout=stackLayout;horizontal=1;startSize=30;horizontalStack=0;resizeParent=1;resizeParentMax=0;resizeLast=0;collapsible=1;marginBottom=0;whiteSpace=wrap;html=1;strokeColor=#028090;fontColor=#E4FDE1;fillColor=#F45B69;" parent="1" vertex="1">
          <mxGeometry x="284" y="190" width="140" height="60" as="geometry" />
        </mxCell>
        <mxCell id="2R7N5CE5uSLcKGkKTlYi-22" value="1.Qt Design + QSS" style="text;align=left;verticalAlign=middle;spacingLeft=4;spacingRight=4;overflow=hidden;points=[[0,0.5],[1,0.5]];portConstraint=eastwest;rotatable=0;whiteSpace=wrap;html=1;fillColor=#dae8fc;strokeColor=#6c8ebf;" parent="2R7N5CE5uSLcKGkKTlYi-21" vertex="1">
          <mxGeometry y="30" width="140" height="30" as="geometry" />
        </mxCell>
        <mxCell id="2R7N5CE5uSLcKGkKTlYi-23" value="Control" style="swimlane;fontStyle=0;childLayout=stackLayout;horizontal=1;startSize=30;horizontalStack=0;resizeParent=1;resizeParentMax=0;resizeLast=0;collapsible=1;marginBottom=0;whiteSpace=wrap;html=1;strokeColor=#028090;fontColor=#E4FDE1;fillColor=#F45B69;" parent="1" vertex="1">
          <mxGeometry x="470" y="190" width="140" height="60" as="geometry" />
        </mxCell>
        <mxCell id="2R7N5CE5uSLcKGkKTlYi-24" value="Qt信号槽机制" style="text;align=left;verticalAlign=middle;spacingLeft=4;spacingRight=4;overflow=hidden;points=[[0,0.5],[1,0.5]];portConstraint=eastwest;rotatable=0;whiteSpace=wrap;html=1;fillColor=#dae8fc;strokeColor=#6c8ebf;" parent="2R7N5CE5uSLcKGkKTlYi-23" vertex="1">
          <mxGeometry y="30" width="140" height="30" as="geometry" />
        </mxCell>
        <mxCell id="2R7N5CE5uSLcKGkKTlYi-26" value="2.Ui原型设计" style="text;align=left;verticalAlign=middle;spacingLeft=4;spacingRight=4;overflow=hidden;points=[[0,0.5],[1,0.5]];portConstraint=eastwest;rotatable=0;whiteSpace=wrap;html=1;fillColor=#dae8fc;strokeColor=#6c8ebf;" parent="1" vertex="1">
          <mxGeometry x="284" y="250" width="140" height="30" as="geometry" />
        </mxCell>
        <mxCell id="2R7N5CE5uSLcKGkKTlYi-28" value="功能二：视频读取" style="text;align=left;verticalAlign=middle;spacingLeft=4;spacingRight=4;overflow=hidden;points=[[0,0.5],[1,0.5]];portConstraint=eastwest;rotatable=0;whiteSpace=wrap;html=1;fillColor=#dae8fc;strokeColor=#6c8ebf;" parent="1" vertex="1">
          <mxGeometry x="100" y="250" width="140" height="30" as="geometry" />
        </mxCell>
        <mxCell id="2R7N5CE5uSLcKGkKTlYi-29" value="功能三：图像处理算法" style="text;align=left;verticalAlign=middle;spacingLeft=4;spacingRight=4;overflow=hidden;points=[[0,0.5],[1,0.5]];portConstraint=eastwest;rotatable=0;whiteSpace=wrap;html=1;fillColor=#dae8fc;strokeColor=#6c8ebf;" parent="1" vertex="1">
          <mxGeometry x="100" y="280" width="140" height="30" as="geometry" />
        </mxCell>
      </root>
    </mxGraphModel>
  </diagram>
  <diagram id="THI9VfOMZEHy-9QVVHLv" name="第 2 页">
    <mxGraphModel dx="790" dy="435" grid="1" gridSize="10" guides="1" tooltips="1" connect="1" arrows="1" fold="1" page="1" pageScale="1" pageWidth="827" pageHeight="1169" math="0" shadow="0">
      <root>
        <mxCell id="0" />
        <mxCell id="1" parent="0" />
      </root>
    </mxGraphModel>
  </diagram>
</mxfile>
